HIERARCHY
ROOT joint_Root
{
	OFFSET 0.0 0.0 0.0
	CHANNELS 6 Xposition Yposition Zposition Zrotation Xrotation Yrotation 
	JOINT Hips
	{
		OFFSET -0.726466 93.3139 -2.00062
		CHANNELS 6 Xposition Yposition Zposition Zrotation Xrotation Yrotation 
		JOINT Spine
		{
			OFFSET 15.7357 0.0 0.0
			CHANNELS 6 Xposition Yposition Zposition Zrotation Xrotation Yrotation 
			JOINT Chest
			{
				OFFSET 8.98455 -0.406207 0.0
				CHANNELS 6 Xposition Yposition Zposition Zrotation Xrotation Yrotation 
				JOINT Neck
				{
					OFFSET 16.3773 0.0 0.0
					CHANNELS 6 Xposition Yposition Zposition Zrotation Xrotation Yrotation 
					JOINT Head
					{
						OFFSET 6.45672 0.0 0.0
						CHANNELS 6 Xposition Yposition Zposition Zrotation Xrotation Yrotation 
						End Site
						{
							OFFSET 0.0 0.0 0.0
						}
					}
				}
				JOINT Shoulder_L
				{
					OFFSET 12.9942 -0.242716 4.98039
					CHANNELS 6 Xposition Yposition Zposition Zrotation Xrotation Yrotation 
					JOINT UpperArm_L
					{
						OFFSET 5.34809 0.0 0.0
						CHANNELS 6 Xposition Yposition Zposition Zrotation Xrotation Yrotation 
						JOINT LowerArm_L
						{
							OFFSET 24.3286 1.87007e-05 0.0
							CHANNELS 6 Xposition Yposition Zposition Zrotation Xrotation Yrotation 
							JOINT Hand_L
							{
								OFFSET 22.2916 0.0 0.0
								CHANNELS 6 Xposition Yposition Zposition Zrotation Xrotation Yrotation 
								End Site
								{
									OFFSET 0.0 0.0 0.0
								}
							}
						}
					}
				}
				JOINT Shoulder_R
				{
					OFFSET 12.9945 -0.242716 -4.98039
					CHANNELS 6 Xposition Yposition Zposition Zrotation Xrotation Yrotation 
					JOINT UpperArm_R
					{
						OFFSET -5.34813 0.0 0.0
						CHANNELS 6 Xposition Yposition Zposition Zrotation Xrotation Yrotation 
						JOINT LowerArm_R
						{
							OFFSET -24.3289 0.000322201 0.0
							CHANNELS 6 Xposition Yposition Zposition Zrotation Xrotation Yrotation 
							JOINT Hand_R
							{
								OFFSET -22.2915 -0.000108084 0.0
								CHANNELS 6 Xposition Yposition Zposition Zrotation Xrotation Yrotation 
								End Site
								{
									OFFSET 0.0 0.0 0.0
								}
							}
						}
					}
				}
			}
		}
		JOINT UpperLeg_L
		{
			OFFSET -2.19248 -6.46944 0.0
			CHANNELS 6 Xposition Yposition Zposition Zrotation Xrotation Yrotation 
			JOINT LowerLeg_L
			{
				OFFSET 39.0811 0.0 -1.23785e-05
				CHANNELS 6 Xposition Yposition Zposition Zrotation Xrotation Yrotation 
				JOINT Foot_L
				{
					OFFSET 40.9854 0.0 -1.26872e-05
					CHANNELS 6 Xposition Yposition Zposition Zrotation Xrotation Yrotation 
					JOINT Toes_L
					{
						OFFSET 11.7543 0.0 0.0
						CHANNELS 6 Xposition Yposition Zposition Zrotation Xrotation Yrotation 
						End Site
						{
							OFFSET 0.0 0.0 0.0
						}
					}
				}
			}
		}
		JOINT UpperLeg_R
		{
			OFFSET -2.19251 6.46944 0.0
			CHANNELS 6 Xposition Yposition Zposition Zrotation Xrotation Yrotation 
			JOINT LowerLeg_R
			{
				OFFSET -39.0811 -0.00228153 -0.0401928
				CHANNELS 6 Xposition Yposition Zposition Zrotation Xrotation Yrotation 
				JOINT Foot_R
				{
					OFFSET -40.9854 0.0 0.0
					CHANNELS 6 Xposition Yposition Zposition Zrotation Xrotation Yrotation 
					JOINT Toes_R
					{
						OFFSET -11.7543 0.0 0.0
						CHANNELS 6 Xposition Yposition Zposition Zrotation Xrotation Yrotation 
						End Site
						{
							OFFSET 0.0 0.0 0.0
						}
					}
				}
			}
		}
	}
}
MOTION
Frames:	4
Frame Time:	0.0333333
0.000000 0.000000 0.000000 0.000000 0.000000 -0.000000 70.655500 89.442000 201.369000 -76.634200 63.056400 172.012000 15.735700 0.000005 -0.000001 110.137000 82.694600 -108.329000 8.984550 -0.406207 -0.000000 5.892630 4.987300 3.357550 16.377300 -0.000001 -0.000001 4.243540 10.002800 -0.784877 6.456720 -0.000001 -0.000000 3.339260 12.700800 -3.452770 12.994200 -0.242716 4.980390 -88.753300 -2.942440 -67.024600 5.348090 -0.000007 -0.000001 -74.880400 14.658400 4.996520 24.328600 0.000019 0.000005 1.793600 10.877800 -9.422570 22.291600 -0.000001 0.000005 9.793600 5.337450 -1.005720 12.994500 -0.242716 -4.980390 88.619500 5.439610 -75.736700 -5.348130 -0.000001 -0.000004 -47.306500 17.734400 -39.439100 -24.328900 0.000322 -0.000009 2.457610 4.634170 -27.989400 -22.291500 -0.000108 -0.000004 13.731200 5.417380 -3.510530 -2.192480 -6.469440 -0.000000 175.432000 -18.349500 -21.293800 39.081100 -0.000007 -0.000012 -0.001604 0.023094 3.971330 40.985400 -0.000006 -0.000013 5.542330 -12.594200 -54.888200 11.754300 -0.000000 0.000003 -0.006818 -0.078099 -19.756000 -2.192510 6.469440 -0.000001 178.400000 20.453700 -174.064000 -39.081100 -0.002282 -0.040193 -0.005769 0.018336 26.340800 -40.985400 0.000008 0.000006 0.788707 4.881490 -73.319400 -11.754300 -0.000006 -0.000006 -0.711575 -0.855388 -19.627700
0.000000 0.000000 0.000000 0.000000 0.000000 -0.000000 73.842600 88.816900 199.694000 -75.864100 62.718100 171.137000 15.735700 0.000005 -0.000001 111.534000 82.767600 -109.880000 8.984550 -0.406207 -0.000000 5.633710 5.265680 3.047410 16.377300 -0.000001 -0.000001 3.924000 9.962120 -0.506000 6.456720 -0.000001 -0.000000 3.198250 12.673900 -2.972960 12.994200 -0.242716 4.980390 -88.712500 -3.050140 -67.102000 5.348090 -0.000007 -0.000001 -75.221100 14.100500 4.592900 24.328600 0.000019 0.000005 1.618250 11.798200 -7.867400 22.291600 -0.000001 0.000005 9.970430 5.305590 -0.084658 12.994500 -0.242716 -4.980390 88.515200 5.803640 -75.622700 -5.348130 -0.000001 -0.000004 -48.535400 17.119100 -38.465000 -24.328900 0.000322 -0.000009 2.290180 4.232190 -28.465400 -22.291500 -0.000108 -0.000004 14.354200 5.423340 -3.712250 -2.192480 -6.469440 -0.000000 174.577000 -18.588500 -23.311400 39.081100 -0.000007 -0.000012 -0.011239 0.097155 6.598030 40.985400 -0.000006 -0.000013 11.716500 -14.807500 -54.437200 11.754300 -0.000000 0.000003 -0.006514 -0.075448 -19.647800 -2.192510 6.469440 -0.000001 178.084000 19.670600 -173.250000 -39.081100 -0.002282 -0.040193 -0.032084 0.064536 28.738400 -40.985400 0.000008 0.000006 0.180488 4.730240 -72.090700 -11.754300 -0.000006 -0.000006 -2.390200 -2.620260 -23.252100
0.000000 0.000000 0.000000 0.000000 0.000000 -0.000000 77.095900 88.439100 197.499000 -77.821900 62.627900 172.608000 15.735700 0.000005 -0.000001 111.810000 82.902300 -110.758000 8.984550 -0.406207 -0.000000 5.383820 5.240200 1.854930 16.377300 -0.000001 -0.000001 3.800310 9.957380 -0.276964 6.456720 -0.000001 -0.000000 2.988690 12.669500 -2.703310 12.994200 -0.242716 4.980390 -88.880900 -2.664060 -67.203500 5.348090 -0.000007 -0.000001 -75.417200 14.105200 3.931100 24.328600 0.000019 0.000005 1.580060 12.497000 -7.264360 22.291600 -0.000001 0.000005 9.335210 5.283710 0.525732 12.994500 -0.242716 -4.980390 88.409100 6.293180 -75.781700 -5.348130 -0.000001 -0.000004 -50.636500 16.872100 -36.591800 -24.328900 0.000322 -0.000009 2.282650 4.253660 -28.265000 -22.291500 -0.000108 -0.000004 14.948300 5.425470 -3.784120 -2.192480 -6.469440 -0.000000 173.626000 -17.617500 -26.267400 39.081100 -0.000007 -0.000012 0.106781 -0.437982 13.701700 40.985400 -0.000006 -0.000013 16.604000 -15.729300 -48.713700 11.754300 -0.000000 0.000003 -0.008699 -0.093652 -20.391100 -2.192510 6.469440 -0.000001 176.132000 18.813200 -172.692000 -39.081100 -0.002282 -0.040193 -0.039820 0.069611 31.774500 -40.985400 0.000008 0.000006 -0.477124 4.954290 -70.487900 -11.754300 -0.000006 -0.000006 -0.800308 -0.913112 -25.067900
0.000000 0.000000 0.000000 0.000000 0.000000 -0.000000 80.504500 88.266600 194.843000 -81.043500 62.600800 175.559000 15.735700 0.000005 -0.000001 110.937000 83.067400 -110.681000 8.984550 -0.406207 -0.000000 5.188010 4.938420 0.288681 16.377300 -0.000001 -0.000001 3.870660 10.142400 -0.192529 6.456720 -0.000001 -0.000000 2.819190 12.790000 -2.585020 12.994200 -0.242716 4.980390 -89.188900 -1.928410 -67.182300 5.348090 -0.000007 -0.000001 -75.482800 14.801800 3.424490 24.328600 0.000019 0.000005 1.671470 12.179300 -7.875380 22.291600 -0.000001 0.000005 8.011790 5.293900 0.239087 12.994500 -0.242716 -4.980390 88.227100 7.007900 -75.764300 -5.348130 -0.000001 -0.000004 -52.536800 18.032800 -34.242900 -24.328900 0.000322 -0.000009 1.956230 3.817620 -27.168900 -22.291500 -0.000108 -0.000004 15.254900 5.426380 -3.815030 -2.192480 -6.469440 -0.000000 172.993000 -16.649300 -27.037800 39.081100 -0.000007 -0.000012 0.159424 -0.460775 19.085400 40.985400 -0.000006 -0.000013 14.864100 -15.445700 -44.050000 11.754300 -0.000000 0.000003 -0.008357 -0.090930 -20.279900 -2.192510 6.469440 -0.000001 173.439000 17.361400 -172.533000 -39.081100 -0.002282 -0.040193 -0.005913 0.012631 36.073200 -40.985400 0.000008 0.000006 -1.138890 4.830290 -67.292200 -11.754300 -0.000006 -0.000006 -0.065287 -0.348585 -30.988900
